<svg width="38" height="38" viewBox="0 0 38 38" xmlns="http://www.w3.org/2000/svg"><defs><linearGradient x1="55.117%" y1="69.542%" x2="63.68%" y2="26.578%" id="a"><stop stop-color="#FF9700" offset="0%"/><stop stop-color="#F48E00" offset="53%"/><stop stop-color="#CE6E00" offset="100%"/></linearGradient></defs><g fill="none" fill-rule="evenodd"><rect fill="#424242" width="38" height="38" rx="4.2"/><path d="M19.265 12.61c0-.292-.217-.46-.483-.377l-18.3 5.803c-.266.084-.482.39-.482.684v5.93c0 .294.216.463.483.38l18.3-5.804c.265-.084.482-.39.482-.684v-5.93z" fill="url(#a)" transform="translate(9.634 6.423)"/><path d="M9.634 18.845c0 .294.216.6.483.685l18.302 5.803c.265.085.482-.085.482-.378v-5.93c0-.294-.217-.6-.483-.685l-18.303-5.803c-.267-.085-.483.084-.483.378v5.93z" fill="#FF9800"/><path d="M28.9 6.847c0-.293-.218-.463-.484-.378l-18.3 5.8c-.266.086-.482.392-.482.686v5.93c0 .294.216.463.483.38l18.3-5.804c.265-.084.482-.39.482-.684v-5.93z" fill="#FF9800"/></g></svg>