<svg height="140" width="140" xmlns="http://www.w3.org/2000/svg"><g fill="#0c0e0e" fill-rule="evenodd"><path d="m87.226 47.698 1.219-1.418c-.978-.652-2.034-1.357-3.124-2.001-.534-.326-.92-.623-.606-1.383h13.132v13.14c-.65.272-1.03.037-1.378-.57-.652-1.111-1.363-2.17-2.107-3.334l-1.304 1.424c4.973 7.019 6.663 14.798 4.741 23.235-1.571 6.898-5.332 12.438-11.086 16.54-11.565 8.225-27.544 6.594-36.957-3.697-9.78-10.686-10.176-26.557-.958-37.486 9.625-11.395 26.447-13.35 38.427-4.467zm-37.402 27.832c1.526 7.544 9.43 16.625 21.735 16.052 9.043-.428 18.91-8.587 19.259-16.052zm0-10.347h41.042c-1.398-7.009-8.454-15.648-19.706-16.053-11.548-.416-19.561 7.991-21.328 16.043zm13.454 8.083a19.192 19.192 0 0 0 2.122-.496 2.53 2.53 0 0 0 1.686-2.34 2.506 2.506 0 0 0 -1.613-2.39 5.235 5.235 0 0 0 -4.454.09 2.493 2.493 0 0 0 -1.414 2.25c0 .952.55 1.833 1.414 2.248.735.263 1.488.476 2.255.628l.002-.01zm23.374.01a17.124 17.124 0 0 0 2.355-.597 2.504 2.504 0 0 0 .125-4.538 5.145 5.145 0 0 0 -4.78.03 2.479 2.479 0 0 0 .04 4.396c.737.284 1.492.517 2.26.7l.002-.011zm-7.772-4.831c-.295-.324-.453-.689-.626-.699a71.49 71.49 0 0 0 -4.42 0c-.151 0-.295.263-.442.415.142.112.295.355.417.324.761-.131 1.005.385 1.28.912.324.62.771 1.197.995 1.856.497 1.46 1.452 1.93 2.935 1.732.6-.081 1.005-.173 1.28-.764.365-.808.832-1.57 1.249-2.36.406-.79.68-1.706 2.021-1.479-.173-.35-.355-.653-.548-.653-1.036-.048-2.072-.025-3.108-.025l-.153.324 1.006.729-1.635 2.998-1.768-3.21 1.487-.112zm-23.15 3.342-1.75-3.2 1.197-.142.137-.27c-.217-.152-.433-.429-.65-.436-1.384-.04-2.767 0-4.149-.02-.61 0-.652.273-.423.802.896-.231 1.326.283 1.652 1.023.261.587.711 1.1.904 1.701.492 1.54 1.539 1.913 3.022 1.75.6-.064.945-.208 1.21-.752.497-1.023 1.086-1.995 1.604-3.008.244-.476.497-.796 1.107-.757.183 0 .396-.328.589-.501l-.173-.26h-3.117a.534.534 0 0 0 -.396.325c0 .131.173.324.325.415.203.081.417.132.63.152l-1.697 3.17-.02.008zm18.912-1.367c-.325.182-.63.233-.738.405-.814 1.347-1.158 1.52-2.79 1.226v-3.454c.133-.014.263-.04.391-.086.251-.127.492-.277.737-.416-.257-.128-.512-.354-.776-.36-1.168-.04-2.334 0-3.502-.02-.61 0-.652.274-.447.747l1.034.119v3.545c-.257-.01-.514.01-.766.06-.152.056-.355.264-.345.395.05.178.182.316.365.365 2.265.022 4.52 0 6.846 0l-.02-2.54.01.014z"/><path d="m64.657 70.256c-.016 1.252-.549 2.05-1.288 2.07-.741.02-1.337-.81-1.304-1.975 0-.182.018-.364.055-.547.16-.689.433-1.317 1.271-1.296.838.02 1.057.607 1.2 1.276.031.162.052.324.066.486zm20.838.251c0-1.281.534-2.066 1.34-2.038.805.03 1.323.907 1.247 2.036a3.36 3.36 0 0 1 -.087.54c-.152.652-.444 1.271-1.219 1.266-.777-.008-1.113-.653-1.237-1.351-.03-.15-.04-.301-.05-.453z"/></g></svg>