<svg height="140" width="140" xmlns="http://www.w3.org/2000/svg"><path d="m31.832 65.558h11.624c.125.622.182 1.37.182 2.174 0 2.596-.726 5.828-3.001 8.114-2.227 2.313-5.05 3.557-8.826 3.557-6.97 0-12.811-5.711-12.811-12.703.016-7.006 5.86-12.7 12.825-12.7 3.846 0 6.599 1.525 8.649 3.524l-2.43 2.44c-1.475-1.394-3.482-2.482-6.22-2.482-5.083 0-9.052 4.121-9.052 9.226 0 5.11 3.97 9.23 9.052 9.23 3.289 0 5.17-1.326 6.374-2.54.985-1.002 1.63-2.427 1.886-4.375h-8.254v-3.471l.003.006zm22.12-2.822c4.507 0 8.186 3.443 8.186 8.198 0 4.72-3.68 8.192-8.184 8.192-4.509 0-8.183-3.488-8.183-8.207 0-4.754 3.674-8.21 8.193-8.21l-.015.026h.004zm0 13.165c2.473 0 4.606-2.044 4.606-4.963 0-2.953-2.133-4.965-4.604-4.965-2.47 0-4.605 2.028-4.605 4.965 0 2.919 2.128 4.963 4.595 4.963h.009zm40.118-11.323v-1.411h3.398v14.746c0 6.064-3.55 8.546-7.744 8.546-3.954 0-6.326-2.662-7.228-4.836l3.113-1.297c.565 1.346 1.936 2.919 4.115 2.919 2.678 0 4.356-1.67 4.356-4.8v-1.138h-.129c-.791.99-2.34 1.865-4.292 1.865-4.066 0-7.616-3.6-7.616-8.207 0-4.626 3.566-8.197 7.632-8.197 1.952 0 3.501.876 4.292 1.834h.129l-.03-.024zm-4.11 11.323c2.44 0 4.364-2.06 4.35-4.931 0-2.871-1.91-4.996-4.35-4.996-2.47 0-4.353 2.076-4.353 4.964 0 2.854 1.882 4.963 4.352 4.963zm-17.76-13.156c4.505 0 8.184 3.456 8.184 8.209 0 4.72-3.679 8.192-8.184 8.192-4.506 0-8.183-3.488-8.183-8.192 0-4.753 3.679-8.193 8.183-8.193zm0 13.173c2.47 0 4.604-2.044 4.604-4.965 0-2.952-2.133-4.964-4.604-4.964-2.468 0-4.603 2.025-4.603 4.96 0 2.92 2.13 4.964 4.599 4.964h.005v.005zm28.075 3.244v-24.82h3.52v24.803h-3.522zm14.399-3.227c1.823 0 3.088-.894 4.014-2.257l2.78 1.866c-.898 1.331-3.06 3.633-6.793 3.633-4.63 0-8.083-3.6-8.083-8.197 0-4.883 3.492-8.197 7.69-8.197 4.224 0 6.302 3.39 6.975 5.223l.365.931-10.908 4.53c.845 1.654 2.134 2.482 3.958 2.482v-.016zm-.252-10.091c-1.855 0-4.281 1.427-4.281 4.866l7.368-3.066c-.407-1.058-1.641-1.804-3.087-1.804z" fill="#0c0e0e"/></svg>