<svg height="140" width="140" xmlns="http://www.w3.org/2000/svg"><path d="m8.001 75.572 2.328-6.769v6.77h2.768v-11.389h-3.574l-2.456 7.086-2.475-7.085h-3.592v11.387h2.75v-6.769l2.345 6.77h1.906zm10.787-11.387h3.006l4.289 11.387h-2.988l-.806-2.207h-4.089l-.788 2.207h-2.912l4.289-11.387zm1.466 3.524-1.154 3.208h2.309zm11.172 4.099h-1.027v3.764h-2.914v-11.387h5.059c2.42 0 4.087 1.391 4.087 3.876 0 1.725-.861 2.912-2.236 3.431l2.64 4.08h-3.263zm-1.027-5.119v2.745h1.833c1.045 0 1.521-.538 1.521-1.373 0-.834-.476-1.372-1.52-1.372zm10.989-2.504h-2.951v11.387h2.95v-11.387zm12.674 5.694c0 3.394-2.254 5.879-5.517 5.879-3.244 0-5.48-2.485-5.48-5.88 0-3.411 2.236-5.878 5.48-5.878 3.263 0 5.517 2.467 5.517 5.879zm-2.97 0c0-1.966-1.025-3.264-2.547-3.264-1.52 0-2.51 1.298-2.51 3.264s.99 3.264 2.51 3.264c1.522 0 2.548-1.298 2.548-3.264zm4.353-3.134h3.464v8.827h2.951v-8.827h3.483v-2.56h-9.898zm11.43-2.56v11.387h8.047v-2.577h-5.15v-1.966h4.71v-2.504h-4.71v-1.78h5.15v-2.56h-8.046zm9.213 8.012c.403 2.244 2.236 3.56 4.93 3.56 2.456 0 4.4-1.334 4.4-3.671 0-1.762-1.064-2.82-2.988-3.283l-2.2-.519c-.586-.13-.934-.408-.934-.909 0-.63.568-1.001 1.41-1.001.972 0 1.485.482 1.724 1.113h2.877c-.311-1.967-1.87-3.487-4.617-3.487-2.493 0-4.326 1.465-4.326 3.69 0 1.93 1.246 2.8 2.896 3.172l2.163.463c.714.167 1.063.408 1.063.946 0 .705-.623 1.094-1.522 1.094-.916 0-1.576-.389-1.814-1.168h-3.06zm10.257-5.452h3.464v8.827h2.951v-8.827h3.483v-2.56h-9.898zm14.382-2.56h-2.951v11.387h2.95v-11.387zm11.943 0h-2.84v6.269l-4.345-6.269h-2.749v11.387h2.841v-6.657l4.71 6.657h2.383zm12.567 5.694c0 3.394-2.255 5.879-5.517 5.879-3.244 0-5.48-2.485-5.48-5.88 0-3.411 2.236-5.878 5.48-5.878 3.262 0 5.517 2.467 5.517 5.879zm-2.97 0c0-1.966-1.026-3.264-2.547-3.264s-2.511 1.298-2.511 3.264.99 3.264 2.51 3.264c1.522 0 2.549-1.298 2.549-3.264zm9.603-5.879v4.24h-4.19v2.91h4.19v4.216h2.877v-4.215h4.19v-2.91h-4.19v-4.241z" fill="#0c0e0e" fill-rule="evenodd"/></svg>