<svg height="140" width="140" xmlns="http://www.w3.org/2000/svg"><path d="m100.543 73.694c.562.405 1.12.837 1.687 1.245.474.335.948.674 1.442.975.434.263.964.545.711 1.106a2.35 2.35 0 0 1 -1.053 1.107c-1.474.678-2.755.043-3.92-.848-.805-.61-1.54-1.28-2.279-1.952-1.72-1.559-3.737-1.83-5.963-1.617-2.016.16-4.036.199-6.055.118-2.866-.088-4.58-1.989-6.079-4.155-.595-.864-1.061-1.901-1.848-2.522a5.085 5.085 0 0 0 -2.785-1.036c-1.535-.061-3.081.284-4.629.402-1.547.117-3.005.105-4.507.153-1.503.048-2.887-.38-4.276-.847a.852.852 0 0 0 -.523.109 5.437 5.437 0 0 1 -3.732.376c-1.937-.553-3.849-1.188-5.786-1.736-.912-.259-1.854-.403-2.786-.605-1.438-.295-2.126.782-2.927 1.616-.182.183-.324.407-.496.58-.567.579-1.094.64-1.732.233a1.296 1.296 0 0 1 -.618-1.708c.841-2.51 2.573-3.914 5.227-4.137l2.491-.204c-2.532-2.622-6.026-2.968-8.842-1.29a4.712 4.712 0 0 0 -1.205 1.25c-.861 1.118-1.55.742-2.39 0-.092-.071-.081-.275-.071-.427 0-.254.05-.508.09-.742l.629.274c1.053-1.077 1.205-2.135.537-3.192a.608.608 0 0 0 -.81-.244c-.834.264-1.429 1.78-.851 2.714-.401-.06-.804-.135-1.206-.183-.668-.083-2.046-1.184-2.127-1.833a2.006 2.006 0 0 1 .314-1.116c.23-.382.497-.737.806-1.057.4-.437.802-.808.898-1.494.07-.44.61-.915 1.057-1.17a14.911 14.911 0 0 1 6.594-1.697c.435-.02.875-.102 1.312-.122a23.078 23.078 0 0 1 6.148.583c2.01.458 4.087.78 6.113 1.247 1.073.244 2.116.67 3.17 1.016 3.079 1.027 6.168 2.02 9.216 3.111 2.614.946 5.17 2.021 7.755 3.06 1.853.732 3.767 1.342 5.552 2.216 2.2 1.088 4.286 2.427 6.452 3.589 2.552 1.377 5.14 2.68 7.704 4.036 1.844.973 3.667 1.982 5.52 2.943 1.296.67 2.664 1.21 4.142.95.75-.132 1.429-.59 2.168-.833.45-.17.929-.244 1.408-.224.651.056 1.029.908.719 1.504a4.48 4.48 0 0 1 -3.48 2.422c-2.13.342-4.018-.38-5.778-1.494-.34-.214-.7-.404-1.05-.585l-.092.173zm10.257 13.971 4.127 2.555c-1.418 0-2.664.068-3.898-.037-.457-.036-.884-.471-1.316-.734a21.835 21.835 0 0 0 -2.626-1.57c-.577-.245-1.31-.157-1.977-.17-1.076-.02-1.073 0-1.083 1.083 0 1.687.215 1.453-1.438 1.463-1.746 0-1.746 0-1.746-1.738v-4.92c0-.64.225-.844.861-.844 2.812.02 5.591 0 8.389.03.854.031 1.701.163 2.523.407 1.069.305 1.535 1.129 1.471 2.318a2.19 2.19 0 0 1 -1.732 1.942c-.456.091-.911.122-1.56.233zm-3.765-1.108h2.38c.955-.03 1.26-.32 1.284-1.175.033-.996-.268-1.311-1.337-1.328h-3.568c-1.955 0-1.945 0-1.762 1.993.04.386.172.539.557.539.82-.031 1.64-.02 2.45-.02v.01zm-45 3.67c-1.355 0-2.71.038-4.06 0a5.767 5.767 0 0 1 -3.28-1.06c-1.67-1.21-1.69-4.189.262-5.452 1.17-.755 2.492-.905 3.802-.946 2.42-.075 4.861 0 7.282-.03.567 0 .719.185.719.73s-.203.721-.74.714c-2.36-.02-4.71 0-7.069 0-1.023 0-1.894.52-2.127 1.38-.364 1.34-.273 2.171.648 2.768a4.07 4.07 0 0 0 1.884.582c1.367.084 2.755 0 4.133.036.476 0 .587-.183.597-.622.05-1.634.06-1.634 1.671-1.634h.638c.405-.028.537.165.527.55 0 .805-.02 1.641 0 2.46 0 .452-.203.559-.602.553h-4.29l.015-.028-.009-.001zm14.267.198c-1.138-.064-2.282-.064-3.411-.205-1.861-.234-3.424-1.279-3.272-3.491.077-1.093.033-2.199 0-3.301 0-.529.185-.71.699-.677.537.02 1.074.02 1.608 0 .434 0 .57.163.568.58v3.222c0 1.698.862 2.602 2.55 2.643.864.02 1.728 0 2.588 0 .622 0 1.219-.254 1.648-.711.43-.458.657-1.068.625-1.688-.07-1.078 0-2.155 0-3.233 0-.569.178-.884.805-.833.577.05 1.168-.03 1.748.03.192 0 .51.288.51.441 0 1.444-.057 2.887-.112 4.331a2.377 2.377 0 0 1 -1.692 2.19 13.34 13.34 0 0 1 -2.813.61c-.669.043-1.34.043-2.009 0l-.04.056zm22.817-.189a12.771 12.771 0 0 0 -2.178.024c-1.013.181-1.646-.298-2.137-1.036a1.133 1.133 0 0 0 -1.104-.541c-1.914 0-3.821.04-5.735 0-.727 0-1.345.068-1.7.762-.581 1.139-1.566.77-2.655.754.905-1.065 1.708-2.017 2.516-2.958 1.149-1.342 2.279-2.699 3.467-4.005.241-.267.711-.325 1.08-.466.061-.023.142 0 .21 0 1.428-.284 2.35.38 3.211 1.474 1.55 1.944 3.241 3.777 4.862 5.648.06.11.11.224.151.344zm-6.002-2.745.136-.152-2.653-3.014-2.664 3.171 5.165-.004h.016zm-55.702 2.737 2.094-2.422c1.274-1.48 2.552-2.96 3.818-4.438a1.864 1.864 0 0 1 1.378-.658c1.426-.162 2.378.366 3.258 1.485 1.534 1.951 3.214 3.791 4.845 5.682a3.1 3.1 0 0 1 .203.336 22.63 22.63 0 0 1 -3.216-.051c-.415-.05-.82-.6-1.124-1.007a1.02 1.02 0 0 0 -.993-.467c-1.985 0-3.97.04-5.945 0a1.5 1.5 0 0 0 -1.489.722c-.425.742-1.043.915-1.823.803-.324-.02-.658-.02-.982-.01zm4.271-2.607h5.733l-2.851-3.257zm-12.862 2.627h-3.214c-.456 0-.618-.157-.61-.618.007-.46.09-.713.617-.697 1.837.056 3.674.109 5.51.122.932 0 2.294-.615 2.41-1.814.117-1.197.142-2.513.15-3.771 0-.546.139-.768.71-.732.648.044 1.297.02 1.955 0 .395 0 .587.165.587.585 0 1.287.02 2.58 0 3.866-.04 1.142-.992 2.095-2.228 2.494-1.955.637-3.92.557-5.894.565h.006z" fill="#0c0e0e" fill-rule="evenodd"/></svg>