<svg height="140" width="140" xmlns="http://www.w3.org/2000/svg"><path d="m70 47h.757c.092.018.186.03.28.039 1.495.041 2.993.032 4.484.131 1.75.12 3.498.28 5.237.514a27.542 27.542 0 0 1 7.44 2.06 18.165 18.165 0 0 1 7.337 5.784 20.51 20.51 0 0 1 3.012 5.864 25.825 25.825 0 0 1 1.104 11.728 22.493 22.493 0 0 1 -2.122 7.214c-1.915 3.804-4.738 6.748-8.637 8.708a31.092 31.092 0 0 1 -6.83 2.345c-2.62.615-5.292 1.001-7.982 1.154a59.05 59.05 0 0 1 -5.006.067c-1.793-.048-3.581-.19-5.37-.321a37.299 37.299 0 0 1 -6.18-1.031c-4.387-1.103-8.22-3.098-11.218-6.453a18.948 18.948 0 0 1 -3.489-5.517 26.052 26.052 0 0 1 -1.746-8.328 25.153 25.153 0 0 1 .88-8.743c1.323-4.499 3.832-8.197 7.856-10.845a23.308 23.308 0 0 1 6.315-2.837 34.568 34.568 0 0 1 7.436-1.244c1.763-.119 3.528-.164 5.29-.24zm-.487 41.952c3.01 0 5.777-.049 8.514-.534a20.798 20.798 0 0 0 6.336-2.098 14.493 14.493 0 0 0 6.07-5.973 22.449 22.449 0 0 0 2.576-9.813c.046-1.157-.04-2.32-.1-3.477a12.673 12.673 0 0 0 -.22-1.51c-.06-.347-.12-.367-.43-.203-.312.164-.645.35-.973.514-1.369.691-2.86 1.057-4.325 1.494-2.112.643-4.255 1.183-6.282 2.04-4.103 1.733-7.148 4.5-8.874 8.567-.265.617-.523 1.24-.84 1.832-.242.45-.661.424-.913-.023a8.076 8.076 0 0 1 -.4-.848 16.317 16.317 0 0 0 -3.839-5.838 15.3 15.3 0 0 0 -5.088-3.374c-1.488-.563-3.022-1.019-4.556-1.453-2.646-.745-5.29-1.471-7.701-2.856-.212-.122-.281-.023-.301.167-.093.929-.228 1.857-.268 2.786a23.536 23.536 0 0 0 .992 8.161c.661 2.105 1.521 4.12 2.883 5.897 2.417 3.152 5.684 4.993 9.606 5.783 2.68.494 5.402.746 8.13.752zm20.768-30.35c-.212-.34-.364-.603-.539-.85a17.227 17.227 0 0 0 -4.986-4.573c-2.427-1.523-5.145-2.272-7.962-2.725a33.349 33.349 0 0 0 -7.013-.398 60.698 60.698 0 0 0 -6.345.562 18.693 18.693 0 0 0 -8.997 3.837 16.543 16.543 0 0 0 -3.703 3.962c-.096.15-.165.26.05.388a41.581 41.581 0 0 0 5.439 2.638c1.56.643 3.148 1.234 4.695 1.9a17.837 17.837 0 0 1 7.876 6.426c.466.684.926 1.372 1.395 2.056.199.29.301.283.483.016.625-.922 1.236-1.85 1.885-2.757a15.6 15.6 0 0 1 4.374-4.222 31.33 31.33 0 0 1 5.37-2.57c1.944-.755 3.914-1.453 5.763-2.423.74-.389 1.448-.83 2.215-1.266z" fill="#0c0e0e"/></svg>