<svg height="140" width="140" xmlns="http://www.w3.org/2000/svg"><path d="m44.61 48c.315.027.637.062.956.086 1.928.135 3.826.531 5.638 1.176 2.112.736 4.035 1.9 5.64 3.417 2.646 2.547 4.13 6.008 4.118 9.612-.04 3.648-1.262 6.871-3.858 9.562-1.954 2.025-4.387 3.323-7.085 4.183-1.67.514-3.4.874-5.151 1.071-2.88.352-5.762.312-8.643.291-1.11 0-2.209-.02-3.318-.05-.947-.03-1.904-.09-2.85-.15a.417.417 0 0 1 -.428-.322.42.42 0 0 1 .244-.492c2.199-1.206 3.553-3.116 4.53-5.266.916-2.02 1.73-4.08 2.565-6.12.866-2.13 1.68-4.271 2.566-6.392a16.219 16.219 0 0 1 2.667-4.432 8.728 8.728 0 0 1 5.11-2.894c.285-.04.57-.06.855-.05.133-.01.255.06.295.17.051.121 0 .252-.112.312-.356.312-.712.593-1.048.905a11.562 11.562 0 0 0 -2.423 3.266 52.963 52.963 0 0 0 -2.423 5.698c-1.048 2.673-2.086 5.346-3.176 8.01a16.753 16.753 0 0 1 -2.738 4.592c-.397.462-.865.864-1.293 1.296-.061.07-.163.12-.204.191-.04.08-.152.271-.122.372.072.12.194.2.336.231.316.05.642.08.965.08 1.629.02 3.258.07 4.887.03a21.659 21.659 0 0 0 7.367-1.386c3.135-1.206 5.548-3.186 7.065-6.12a13.644 13.644 0 0 0 1.44-4.884c.265-2.191.05-4.422-.61-6.533-1.324-4.06-4.19-6.582-8.42-7.707a19.057 19.057 0 0 0 -6.566-.525c-1.99.13-3.936.609-5.74 1.417-2.665 1.236-4.592 3.145-5.586 5.849a7.89 7.89 0 0 0 -.203 5.01c.03.12.102.25-.04.348a.42.42 0 0 1 -.459 0 .78.78 0 0 1 -.228-.221 6.113 6.113 0 0 1 -1.08-2.965c0-.08-.037-.16-.05-.24v-1.178c.05-.295.086-.592.153-.888a8.077 8.077 0 0 1 2.286-3.869 13.882 13.882 0 0 1 5.4-3.25 21.285 21.285 0 0 1 5.603-1.106l.998-.09 2.21.02zm66.572 13.959c-.04.155-.079.311-.122.468a5.453 5.453 0 0 1 -1.649 2.486 13.21 13.21 0 0 1 -4.798 2.683 25.417 25.417 0 0 1 -5.629 1.198l-.193.02c-.51.05-.52.05-.621.523a10.536 10.536 0 0 0 -.235 3.869 3.331 3.331 0 0 0 1.08 2.12c.722.603 1.598.724 2.524.654 1.975-.151 3.604-1.005 4.988-2.292.672-.623 1.252-1.326 1.873-2a.493.493 0 0 1 .631-.11c.184.13.214.372.082.543v.01c-1.74 2.773-4.174 4.592-7.543 5.135a7.945 7.945 0 0 1 -4.276-.392c-1.506-.593-2.596-1.89-2.88-3.437a9.16 9.16 0 0 1 .182-4.572c1.08-3.93 3.36-7.045 7.004-9.165a9.833 9.833 0 0 1 5.07-1.367 6.87 6.87 0 0 1 2.626.432c1.018.342 1.761 1.216 1.914 2.24.01.031.02.061.04.091l-.01.804zm-12.604 5.959c.03.01.064.02.097.026h.132a15.9 15.9 0 0 0 4.813-1.314 9.371 9.371 0 0 0 3.6-2.688 4.182 4.182 0 0 0 .98-2.974c-.082-1.066-.748-1.679-1.853-1.679-.478.01-.952.101-1.392.282a7.556 7.556 0 0 0 -2.679 1.89 15.427 15.427 0 0 0 -3.08 4.843c-.226.533-.42 1.085-.63 1.638h.012zm-37.932 16.094c.28.02.566.062.845.052.514 0 1.028-.032 1.537-.094 2.52-.374 4.774-1.363 6.949-2.577a8.302 8.302 0 0 1 2.56-1.04 4.196 4.196 0 0 1 2.84.352c.835.422 1.334 1.266 1.283 2.17a3.197 3.197 0 0 1 -.733 1.9c-.061.09-.122.18-.163.271a.21.21 0 0 0 0 .191c.06.05.132.06.203.04.133-.03.255-.09.367-.17.366-.302.743-.594 1.079-.935a7.856 7.856 0 0 1 2.158-1.648 2.922 2.922 0 0 1 3.197.321l.722.533c.173.13.163.21-.05.271a3.51 3.51 0 0 0 -1.976 1.568c-.651 1.075-1.292 2.17-1.985 3.226a9.807 9.807 0 0 1 -4.102 3.587 9.972 9.972 0 0 1 -3.074.835c-2.23.23-4.327-.272-6.312-1.156a46.893 46.893 0 0 1 -8.928-5.266c-.06-.04-.091-.13-.122-.201a.762.762 0 0 1 .214 0 26.24 26.24 0 0 0 4.326.804c.927.1 1.843.19 2.78.251.824.05 1.649.09 2.463.08a9.1 9.1 0 0 0 2.606-.341c.153-.05.306-.11.448-.181.061-.03.092-.11.132-.18-.06-.041-.122-.081-.193-.122a.762.762 0 0 0 -.214 0c-1.832.292-3.603-.02-5.304-.592-1.18-.372-2.3-.925-3.308-1.638a1.407 1.407 0 0 1 -.22-.232l.04-.04zm6.662-6.63a6.904 6.904 0 0 1 -3.068-.694c-1.496-.747-2.555-2.114-2.88-3.711a9.232 9.232 0 0 1 .09-4.502c.907-3.558 2.882-6.412 6.099-8.422a10.95 10.95 0 0 1 6.26-1.678 6.69 6.69 0 0 1 3.604 1.045 5.36 5.36 0 0 1 2.28 3.467 9.762 9.762 0 0 1 -.214 4.784c-.865 3.396-3.084 6.32-6.179 8.14a11.162 11.162 0 0 1 -5.975 1.587l-.017-.017zm6.032-18.114c-.424.068-.843.158-1.256.27a7.409 7.409 0 0 0 -3.207 2.167c-2.662 2.852-4.107 6.569-4.046 10.404-.02.9.152 1.794.488 2.633.428.995 1.171 1.615 2.321 1.692a4.36 4.36 0 0 0 2.169-.442 7.492 7.492 0 0 0 2.504-1.9c2.657-2.974 4.072-6.783 4-10.692a5.857 5.857 0 0 0 -.55-2.553c-.386-.945-1.343-1.568-2.402-1.568v.01l-.021-.02zm12.514 7.276a2095.57 2095.57 0 0 1 -.36 5.604c-.03.437-.083.874-.09 1.31 0 .621.27.791.818.465.371-.228.71-.5 1.007-.812a26.038 26.038 0 0 0 6.033-9.682c.407-1.123.679-2.286.81-3.467.01-.296.003-.591-.02-.885 0-.07 0-.167.043-.205.342-.311.821-.44 1.282-.347.432.09.733.466.719.891a6.873 6.873 0 0 1 -.33 2.002 25.746 25.746 0 0 1 -3.024 6.552 33.166 33.166 0 0 1 -6.556 7.628 9.691 9.691 0 0 1 -2.158 1.437 2.498 2.498 0 0 1 -1.313.271c-.418-.01-.764-.301-.815-.693a6.368 6.368 0 0 1 -.102-1.387c.072-1.437.204-2.874.296-4.321.06-1.096.132-2.191.152-3.287.01-1.095 0-2.14-.06-3.205a11.458 11.458 0 0 0 -.703-3.699 3.247 3.247 0 0 0 -1.08-1.497c-.172-.13-.152-.291.072-.352.305-.08.621-.12.926-.13a3.912 3.912 0 0 1 2.81.995 4.23 4.23 0 0 1 1.211 2.321c.204 1.085.316 2.18.316 3.286v1.166l.081-.02z" fill="#0c0e0e" fill-rule="evenodd"/></svg>