<svg height="53" viewBox="0 0 53 53" width="53" xmlns="http://www.w3.org/2000/svg"><g fill="none" fill-rule="evenodd"><ellipse cx="26.219" cy="26.729" fill="#c4cacd" rx="25.819" ry="25.871"/><g fill-rule="nonzero" transform="matrix(-.70710678 .70710678 -.70710678 -.70710678 64.376603 28.822338)"><path d="m19.123 28.962c.76.943 3.42 4.131 6.213 6.13 1.9 1.347 3.42 1.863 3.643 1.93.692.292 1.274.36 1.743.36.514 0 .85-.09.938-.135.783-.224 1.43-.718 2.034-1.19a12.37 12.37 0 0 0 1.81-1.751c.29-.36.403-.719.29-1.123l-.044-.045c-.335-.786-2.548-2.694-2.57-2.717-.335-.27-.67-.561-1.05-.808-.179-.113-.402-.247-.648-.292-.559-.09-.894.292-1.118.539l-.09.09c-.133.134-.29.314-.446.494-.268.314-.805.943-.983 1.01-.269.045-1.297-.561-1.81-.988-1.543-1.28-2.906-2.65-3.487-3.503l-.022-.022c-.917-1.325-1.006-1.73-.984-1.819.067-.202.693-.741 1.006-1.01.179-.158.358-.315.492-.45l.09-.09c.245-.224.625-.583.536-1.145a1.573 1.573 0 0 0 -.291-.65 10.02 10.02 0 0 0 -.805-1.056c-.044 0-1.944-2.223-2.726-2.56l-.067-.022c-.38-.09-.76 0-1.117.292a12.376 12.376 0 0 0 -1.744 1.818c-.491.607-.96 1.258-1.184 2.044-.067.18-.358 1.212.223 2.672.09.27.581 2.02 2.168 3.997zm-1.542-6.377.023-.045c.178-.629.603-1.213 1.028-1.73a11.746 11.746 0 0 1 1.63-1.683c.113-.09.202-.135.247-.135h.022c.402.225 1.654 1.527 2.324 2.335.268.315.537.629.738.966.067.112.134.202.156.292.023.067-.09.18-.268.336l-.112.113c-.111.112-.268.247-.447.404-.67.561-1.14 1.01-1.273 1.415-.157.494.156 1.212 1.117 2.582l.022.022c.76 1.1 2.436 2.672 3.665 3.683.023.022 1.766 1.437 2.637 1.167.425-.134.85-.606 1.408-1.28.157-.18.29-.336.403-.449l.111-.112c.157-.157.269-.27.336-.27.089.023.2.09.29.158.335.224.648.471.961.74.805.697 2.1 1.954 2.324 2.358 0 .068 0 .158-.134.292-.447.54-1.005 1.078-1.676 1.64-.536.426-1.095.853-1.72 1.032h-.023c-.045.023-.827.292-2.056-.224l-.045-.023c-.022 0-1.542-.471-3.397-1.818-2.681-1.932-5.296-5.053-6.034-5.973-1.564-1.931-2.011-3.66-2.011-3.683l-.022-.067c-.514-1.213-.246-2.02-.224-2.043z" fill="#fff" fill-rule="evenodd"/><path d="m18.929 29.118a13.041 13.041 0 0 1 -1.678-2.69 11.085 11.085 0 0 1 -.528-1.37 4.925 4.925 0 0 1 -.372-1.914c.007-.4.071-.736.14-.92.205-.72.577-1.325 1.229-2.129a12.625 12.625 0 0 1 1.781-1.858c.41-.335.868-.451 1.355-.335l.087.03c.304.13.728.479 1.274 1.012.097.095.198.195.301.3.27.276.522.543.852.901a54.397 54.397 0 0 0 .344.37c.037.021.037.021-.144-.044l.19.088c.342.4.603.737.815 1.068.168.224.287.484.337.761.09.565-.13.927-.606 1.361l-.089.09c-.117.118-.231.22-.504.46l-.002.002c-.187.161-.29.251-.413.362l-.106.097c-.237.22-.399.4-.407.422-.015.06.253.614.918 1.582l.052.058c.565.83 1.914 2.185 3.44 3.452.507.421 1.462.958 1.561.946.036-.013.219-.188.443-.436l.079-.087c.11-.124.2-.227.35-.403l.011-.015c.24-.274.341-.388.459-.506l.08-.081c.092-.1.122-.133.177-.188.34-.338.702-.505 1.172-.43.245.046.44.141.739.33.228.147.434.304.735.549l.356.292c-.123-.125.818.726 1.305 1.205.111.11.218.217.32.322.522.538.868.964.945 1.19l.045.045.064.11c.131.474.012.914-.34 1.35a12.614 12.614 0 0 1 -1.848 1.787c-.911.712-1.424 1.034-2.075 1.216-.177.09-.589.162-1.051.162a4.539 4.539 0 0 1 -1.815-.37 9.827 9.827 0 0 1 -1.228-.5 16.658 16.658 0 0 1 -2.489-1.467c-2.226-1.593-4.453-3.932-6.261-6.177zm15.735 4.39c-.274-.395-1.364-1.476-2.228-2.224a9.81 9.81 0 0 0 -.948-.73c-.078-.06-.159-.104-.14-.107.05 0-.042.078-.158.195l-.112.113a7.246 7.246 0 0 0 -.387.432c-.725.873-1.087 1.22-1.527 1.36-.472.145-1.097-.062-1.838-.499-.432-.255-.954-.636-1.031-.715-1.484-1.22-3.02-2.73-3.684-3.7l-.05-.055c-1.009-1.438-1.34-2.203-1.15-2.804.141-.425.53-.84 1.346-1.524.35-.307.352-.309.435-.393l.056-.056.068-.067c.093-.082.164-.166.19-.089a.324.324 0 0 0 -.034-.072l-.094-.152c-.158-.264-.32-.47-.715-.934-.675-.814-1.751-1.918-2.17-2.221l-.07.052c-.553.464-1.073.997-1.598 1.652-.528.64-.838 1.135-.998 1.681l-.022.045-.047.065c-.065.066-.079.93.284 1.788l.035.146c0 .329.81 2.11 1.956 3.526 1.67 2.084 3.887 4.416 5.986 5.927 1.362.99 3.04 1.771 3.25 1.771l.112.027.03.015c.508.214.968.302 1.371.295.24-.004.439-.045.476-.063l.112-.027-.047.01c.487-.14.901-.405 1.63-.984.68-.57 1.22-1.096 1.659-1.624a.327.327 0 0 0 .052-.06zm-17.298-11.046-.009.012.006-.002z" stroke="#fff" stroke-width=".5"/></g></g></svg>