<svg height="53" viewBox="0 0 52 53" width="52" xmlns="http://www.w3.org/2000/svg"><g fill="none" fill-rule="evenodd"><ellipse cx="26.081" cy="26.729" fill="#000" rx="25.819" ry="25.871"/><g fill-rule="nonzero"><path d="m18.986 27.947c.76.943 3.419 4.132 6.212 6.13 1.9 1.347 3.42 1.864 3.643 1.931.693.292 1.274.36 1.743.36.514 0 .85-.09.939-.135.782-.225 1.43-.719 2.034-1.19a12.37 12.37 0 0 0 1.81-1.752c.29-.36.402-.718.29-1.123l-.044-.045c-.336-.785-2.548-2.694-2.57-2.716-.336-.27-.67-.562-1.05-.809-.18-.112-.403-.247-.649-.292-.559-.09-.894.292-1.117.54l-.09.089c-.134.135-.29.314-.447.494-.268.314-.804.943-.983 1.01-.268.045-1.296-.56-1.81-.988-1.542-1.28-2.905-2.65-3.486-3.502l-.023-.023c-.916-1.325-1.005-1.729-.983-1.819.067-.202.693-.74 1.006-1.01.178-.157.357-.314.491-.45l.09-.089c.245-.224.625-.584.536-1.145a1.573 1.573 0 0 0 -.29-.651 10.021 10.021 0 0 0 -.805-1.056c-.045 0-1.944-2.222-2.727-2.56l-.067-.022c-.38-.09-.76 0-1.117.292a12.376 12.376 0 0 0 -1.743 1.819c-.492.606-.961 1.257-1.185 2.043-.067.18-.357 1.213.224 2.672.09.27.581 2.021 2.168 3.997zm-1.542-6.377.022-.045c.179-.628.603-1.212 1.028-1.729a11.746 11.746 0 0 1 1.631-1.684c.112-.09.202-.135.246-.135h.023c.402.225 1.653 1.527 2.324 2.336.268.314.536.628.737.965.067.112.134.202.157.292.022.067-.09.18-.268.337l-.112.112c-.112.112-.268.247-.447.404-.67.562-1.14 1.01-1.274 1.415-.156.494.156 1.212 1.117 2.582l.023.023c.76 1.1 2.436 2.672 3.665 3.682.022.023 1.765 1.437 2.637 1.168.425-.135.85-.607 1.408-1.28.156-.18.29-.337.402-.45l.112-.112c.156-.157.268-.269.335-.269.09.022.201.09.29.157.336.225.649.472.962.741.804.696 2.1 1.954 2.324 2.358 0 .067 0 .157-.134.292-.447.539-1.006 1.078-1.676 1.639-.537.426-1.095.853-1.721 1.033h-.023c-.044.022-.826.292-2.056-.225l-.044-.022c-.023 0-1.542-.472-3.397-1.819-2.682-1.931-5.297-5.052-6.034-5.973-1.565-1.93-2.012-3.66-2.012-3.682l-.022-.068c-.514-1.212-.246-2.02-.223-2.043z" fill="#fff" fill-rule="evenodd"/><path d="m18.791 28.104a13.041 13.041 0 0 1 -1.678-2.69 11.085 11.085 0 0 1 -.527-1.371 4.925 4.925 0 0 1 -.373-1.913c.007-.4.071-.736.141-.92.205-.72.576-1.326 1.228-2.13a12.625 12.625 0 0 1 1.782-1.858c.41-.334.868-.451 1.355-.335l.086.03c.304.131.728.48 1.274 1.012.098.095.198.196.302.301.27.275.522.543.851.9l.271.294.073.076c.038.021.038.021-.143-.044l.19.088c.342.4.602.737.815 1.068.167.225.287.485.337.762.09.565-.13.926-.606 1.36l-.09.09a9.99 9.99 0 0 1 -.505.462c-.187.162-.29.252-.413.363-.054.048-.054.048-.106.097-.237.22-.399.399-.407.422-.015.059.253.614.917 1.582l.052.058c.565.83 1.914 2.185 3.44 3.451.508.422 1.463.958 1.562.946.079-.03.418-.395.883-.94.239-.274.341-.389.458-.506l.081-.082c.091-.1.122-.133.176-.187.34-.339.702-.505 1.172-.43.245.045.44.14.74.329.227.148.434.304.735.55l.356.291c-.124-.124.817.727 1.304 1.205.112.11.219.218.32.322.523.538.869.964.946 1.19l.045.045.063.11c.132.475.012.915-.34 1.35a12.614 12.614 0 0 1 -1.847 1.787c-.912.713-1.424 1.034-2.076 1.217-.176.089-.588.161-1.05.161a4.539 4.539 0 0 1 -1.816-.37 9.827 9.827 0 0 1 -1.228-.499 16.658 16.658 0 0 1 -2.488-1.468c-2.226-1.592-4.453-3.931-6.262-6.176zm15.735 4.39c-.274-.395-1.363-1.477-2.228-2.224a9.81 9.81 0 0 0 -.948-.731c-.078-.059-.158-.104-.14-.107.05 0-.041.078-.158.196l-.112.112a7.246 7.246 0 0 0 -.387.432c-.724.874-1.086 1.22-1.526 1.36-.473.146-1.098-.062-1.838-.498-.433-.256-.955-.637-1.032-.716-1.484-1.22-3.019-2.73-3.683-3.699l-.05-.055c-1.01-1.439-1.34-2.203-1.15-2.805.14-.424.529-.84 1.346-1.523.35-.308.351-.31.435-.393l.055-.056.068-.068c.094-.082.165-.166.191-.089a.324.324 0 0 0 -.034-.071c-.013-.022-.077-.124-.117-.202l.023.05c-.158-.265-.32-.471-.716-.935-.675-.814-1.75-1.917-2.169-2.22-.017.012-.043.03-.07.052-.553.463-1.074.997-1.599 1.651-.527.641-.837 1.135-.997 1.682l-.023.045-.046.064c-.066.066-.08.931.283 1.789l.035.146c0 .328.81 2.11 1.957 3.526 1.669 2.083 3.887 4.415 5.986 5.927 1.362.989 3.04 1.77 3.25 1.77l.112.027.03.016c.508.213.968.301 1.37.295.24-.004.44-.045.476-.064l.112-.026-.046.01c.486-.14.9-.405 1.63-.985.68-.57 1.219-1.095 1.659-1.624a.327.327 0 0 0 .051-.059zm-17.298-11.047-.008.012.006-.002a3.08 3.08 0 0 1 .002-.01z" stroke="#fff" stroke-width=".5"/></g></g></svg>