<svg width="290" height="165" xmlns="http://www.w3.org/2000/svg"><g fill="#6F797E" fill-rule="evenodd"><g transform="translate(108 59)"><circle cx="1" cy="1" r="1"/><circle cx="1" cy="10" r="1"/><circle cx="1" cy="19" r="1"/><circle cx="1" cy="28" r="1"/><circle cx="10" cy="1" r="1"/><circle cx="10" cy="10" r="1"/><circle cx="10" cy="19" r="1"/><circle cx="10" cy="28" r="1"/><circle cx="19" cy="1" r="1"/><circle cx="19" cy="10" r="1"/><circle cx="19" cy="19" r="1"/><circle cx="19" cy="28" r="1"/><circle cx="28" cy="1" r="1"/><circle cx="28" cy="10" r="1"/><circle cx="28" cy="19" r="1"/><circle cx="28" cy="28" r="1"/><circle cx="37" cy="1" r="1"/><circle cx="37" cy="10" r="1"/><circle cx="37" cy="19" r="1"/><circle cx="37" cy="28" r="1"/><circle cx="46" cy="1" r="1"/><circle cx="46" cy="10" r="1"/><circle cx="46" cy="19" r="1"/><circle cx="46" cy="28" r="1"/><circle cx="55" cy="1" r="1"/><circle cx="55" cy="10" r="1"/><circle cx="55" cy="19" r="1"/><circle cx="55" cy="28" r="1"/><circle cx="64" cy="1" r="1"/><circle cx="64" cy="10" r="1"/><circle cx="64" cy="19" r="1"/><circle cx="64" cy="28" r="1"/><circle cx="73" cy="1" r="1"/><circle cx="73" cy="10" r="1"/><circle cx="73" cy="19" r="1"/><circle cx="73" cy="28" r="1"/><circle cx="82" cy="1" r="1"/><circle cx="82" cy="10" r="1"/><circle cx="82" cy="19" r="1"/><circle cx="82" cy="28" r="1"/><circle cx="91" cy="1" r="1"/><circle cx="91" cy="10" r="1"/><circle cx="91" cy="19" r="1"/><circle cx="91" cy="28" r="1"/><circle cx="100" cy="1" r="1"/><circle cx="100" cy="10" r="1"/><circle cx="100" cy="19" r="1"/><circle cx="100" cy="28" r="1"/><circle cx="109" cy="1" r="1"/><circle cx="109" cy="10" r="1"/><circle cx="109" cy="19" r="1"/><circle cx="109" cy="28" r="1"/><circle cx="118" cy="1" r="1"/><circle cx="118" cy="10" r="1"/><circle cx="118" cy="19" r="1"/><circle cx="118" cy="28" r="1"/><circle cx="127" cy="1" r="1"/><circle cx="127" cy="10" r="1"/><circle cx="127" cy="19" r="1"/><circle cx="127" cy="28" r="1"/><circle cx="136" cy="1" r="1"/><circle cx="136" cy="10" r="1"/><circle cx="136" cy="19" r="1"/><circle cx="136" cy="28" r="1"/><circle cx="145" cy="1" r="1"/><circle cx="145" cy="10" r="1"/><circle cx="145" cy="19" r="1"/><circle cx="145" cy="28" r="1"/><circle cx="154" cy="1" r="1"/><circle cx="154" cy="10" r="1"/><circle cx="154" cy="19" r="1"/><circle cx="154" cy="28" r="1"/></g><g><circle cx="1" cy="1" r="1"/><circle cx="1" cy="10" r="1"/><circle cx="1" cy="19" r="1"/><circle cx="1" cy="28" r="1"/><circle cx="10" cy="1" r="1"/><circle cx="10" cy="10" r="1"/><circle cx="10" cy="19" r="1"/><circle cx="10" cy="28" r="1"/><circle cx="19" cy="1" r="1"/><circle cx="19" cy="10" r="1"/><circle cx="19" cy="19" r="1"/><circle cx="19" cy="28" r="1"/><circle cx="28" cy="1" r="1"/><circle cx="28" cy="10" r="1"/><circle cx="28" cy="19" r="1"/><circle cx="28" cy="28" r="1"/><circle cx="37" cy="1" r="1"/><circle cx="37" cy="10" r="1"/><circle cx="37" cy="19" r="1"/><circle cx="37" cy="28" r="1"/><circle cx="46" cy="1" r="1"/><circle cx="46" cy="10" r="1"/><circle cx="46" cy="19" r="1"/><circle cx="46" cy="28" r="1"/><circle cx="55" cy="1" r="1"/><circle cx="55" cy="10" r="1"/><circle cx="55" cy="19" r="1"/><circle cx="55" cy="28" r="1"/><circle cx="64" cy="1" r="1"/><circle cx="64" cy="10" r="1"/><circle cx="64" cy="19" r="1"/><circle cx="64" cy="28" r="1"/><circle cx="73" cy="1" r="1"/><circle cx="73" cy="10" r="1"/><circle cx="73" cy="19" r="1"/><circle cx="73" cy="28" r="1"/><circle cx="82" cy="1" r="1"/><circle cx="82" cy="10" r="1"/><circle cx="82" cy="19" r="1"/><circle cx="82" cy="28" r="1"/><circle cx="91" cy="1" r="1"/><circle cx="91" cy="10" r="1"/><circle cx="91" cy="19" r="1"/><circle cx="91" cy="28" r="1"/><circle cx="100" cy="1" r="1"/><circle cx="100" cy="10" r="1"/><circle cx="100" cy="19" r="1"/><circle cx="100" cy="28" r="1"/><circle cx="109" cy="1" r="1"/><circle cx="109" cy="10" r="1"/><circle cx="109" cy="19" r="1"/><circle cx="109" cy="28" r="1"/><circle cx="118" cy="1" r="1"/><circle cx="118" cy="10" r="1"/><circle cx="118" cy="19" r="1"/><circle cx="118" cy="28" r="1"/><circle cx="127" cy="1" r="1"/><circle cx="127" cy="10" r="1"/><circle cx="127" cy="19" r="1"/><circle cx="127" cy="28" r="1"/><circle cx="136" cy="1" r="1"/><circle cx="136" cy="10" r="1"/><circle cx="136" cy="19" r="1"/><circle cx="136" cy="28" r="1"/><circle cx="145" cy="1" r="1"/><circle cx="145" cy="10" r="1"/><circle cx="145" cy="19" r="1"/><circle cx="145" cy="28" r="1"/><circle cx="154" cy="1" r="1"/><circle cx="154" cy="10" r="1"/><circle cx="154" cy="19" r="1"/><circle cx="154" cy="28" r="1"/><circle cx="163" cy="1" r="1"/><circle cx="163" cy="10" r="1"/><circle cx="163" cy="19" r="1"/><circle cx="163" cy="28" r="1"/><circle cx="172" cy="1" r="1"/><circle cx="172" cy="10" r="1"/><circle cx="172" cy="19" r="1"/><circle cx="172" cy="28" r="1"/><circle cx="181" cy="1" r="1"/><circle cx="181" cy="10" r="1"/><circle cx="181" cy="19" r="1"/><circle cx="181" cy="28" r="1"/><circle cx="190" cy="1" r="1"/><circle cx="190" cy="10" r="1"/><circle cx="190" cy="19" r="1"/><circle cx="190" cy="28" r="1"/><circle cx="199" cy="1" r="1"/><circle cx="199" cy="10" r="1"/><circle cx="199" cy="19" r="1"/><circle cx="199" cy="28" r="1"/><circle cx="208" cy="1" r="1"/><circle cx="208" cy="10" r="1"/><circle cx="208" cy="19" r="1"/><circle cx="208" cy="28" r="1"/><circle cx="217" cy="1" r="1"/><circle cx="217" cy="10" r="1"/><circle cx="217" cy="19" r="1"/><circle cx="217" cy="28" r="1"/><circle cx="226" cy="1" r="1"/><circle cx="226" cy="10" r="1"/><circle cx="226" cy="19" r="1"/><circle cx="226" cy="28" r="1"/><circle cx="235" cy="1" r="1"/><circle cx="235" cy="10" r="1"/><circle cx="235" cy="19" r="1"/><circle cx="235" cy="28" r="1"/><circle cx="244" cy="1" r="1"/><circle cx="244" cy="10" r="1"/><circle cx="244" cy="19" r="1"/><circle cx="244" cy="28" r="1"/><circle cx="253" cy="1" r="1"/><circle cx="253" cy="10" r="1"/><circle cx="253" cy="19" r="1"/><circle cx="253" cy="28" r="1"/><circle cx="262" cy="1" r="1"/><circle cx="262" cy="10" r="1"/><circle cx="262" cy="19" r="1"/><circle cx="262" cy="28" r="1"/></g><g transform="translate(72 118)"><circle cx="1" cy="1" r="1"/><circle cx="1" cy="10" r="1"/><circle cx="1" cy="19" r="1"/><circle cx="10" cy="1" r="1"/><circle cx="10" cy="10" r="1"/><circle cx="10" cy="19" r="1"/><circle cx="19" cy="1" r="1"/><circle cx="19" cy="10" r="1"/><circle cx="19" cy="19" r="1"/><circle cx="28" cy="1" r="1"/><circle cx="28" cy="10" r="1"/><circle cx="28" cy="19" r="1"/><circle cx="37" cy="1" r="1"/><circle cx="37" cy="10" r="1"/><circle cx="37" cy="19" r="1"/><circle cx="46" cy="1" r="1"/><circle cx="46" cy="10" r="1"/><circle cx="46" cy="19" r="1"/><circle cx="55" cy="1" r="1"/><circle cx="55" cy="10" r="1"/><circle cx="55" cy="19" r="1"/><circle cx="64" cy="1" r="1"/><circle cx="64" cy="10" r="1"/><circle cx="64" cy="19" r="1"/><circle cx="73" cy="1" r="1"/><circle cx="73" cy="10" r="1"/><circle cx="73" cy="19" r="1"/><circle cx="82" cy="1" r="1"/><circle cx="82" cy="10" r="1"/><circle cx="82" cy="19" r="1"/><circle cx="91" cy="1" r="1"/><circle cx="91" cy="10" r="1"/><circle cx="91" cy="19" r="1"/><circle cx="100" cy="1" r="1"/><circle cx="100" cy="10" r="1"/><circle cx="100" cy="19" r="1"/><circle cx="109" cy="1" r="1"/><circle cx="109" cy="10" r="1"/><circle cx="109" cy="19" r="1"/><circle cx="118" cy="1" r="1"/><circle cx="118" cy="10" r="1"/><circle cx="118" cy="19" r="1"/><circle cx="127" cy="1" r="1"/><circle cx="127" cy="10" r="1"/><circle cx="127" cy="19" r="1"/><circle cx="136" cy="1" r="1"/><circle cx="136" cy="10" r="1"/><circle cx="136" cy="19" r="1"/><circle cx="145" cy="1" r="1"/><circle cx="145" cy="10" r="1"/><circle cx="145" cy="19" r="1"/><circle cx="154" cy="1" r="1"/><circle cx="154" cy="10" r="1"/><circle cx="154" cy="19" r="1"/><circle cx="163" cy="1" r="1"/><circle cx="163" cy="10" r="1"/><circle cx="163" cy="19" r="1"/><circle cx="172" cy="1" r="1"/><circle cx="172" cy="10" r="1"/><circle cx="172" cy="19" r="1"/><circle cx="181" cy="1" r="1"/><circle cx="181" cy="10" r="1"/><circle cx="181" cy="19" r="1"/><circle cx="190" cy="1" r="1"/><circle cx="190" cy="10" r="1"/><circle cx="190" cy="19" r="1"/><circle cx="199" cy="1" r="1"/><circle cx="199" cy="10" r="1"/><circle cx="199" cy="19" r="1"/><circle cx="208" cy="1" r="1"/><circle cx="208" cy="10" r="1"/><circle cx="208" cy="19" r="1"/><circle cx="217" cy="1" r="1"/><circle cx="217" cy="10" r="1"/><circle cx="217" cy="19" r="1"/></g><g transform="translate(72 145)"><circle cx="1" cy="1" r="1"/><circle cx="1" cy="10" r="1"/><circle cx="1" cy="19" r="1"/><circle cx="10" cy="1" r="1"/><circle cx="10" cy="10" r="1"/><circle cx="10" cy="19" r="1"/><circle cx="19" cy="1" r="1"/><circle cx="19" cy="10" r="1"/><circle cx="19" cy="19" r="1"/><circle cx="28" cy="1" r="1"/><circle cx="28" cy="10" r="1"/><circle cx="28" cy="19" r="1"/><circle cx="37" cy="1" r="1"/><circle cx="37" cy="10" r="1"/><circle cx="37" cy="19" r="1"/><circle cx="46" cy="1" r="1"/><circle cx="46" cy="10" r="1"/><circle cx="46" cy="19" r="1"/><circle cx="55" cy="1" r="1"/><circle cx="55" cy="10" r="1"/><circle cx="55" cy="19" r="1"/><circle cx="64" cy="1" r="1"/><circle cx="64" cy="10" r="1"/><circle cx="64" cy="19" r="1"/><circle cx="73" cy="1" r="1"/><circle cx="73" cy="10" r="1"/><circle cx="73" cy="19" r="1"/><circle cx="82" cy="1" r="1"/><circle cx="82" cy="10" r="1"/><circle cx="82" cy="19" r="1"/><circle cx="91" cy="1" r="1"/><circle cx="91" cy="10" r="1"/><circle cx="91" cy="19" r="1"/><circle cx="100" cy="1" r="1"/><circle cx="100" cy="10" r="1"/><circle cx="100" cy="19" r="1"/></g></g></svg>