<svg width="151" height="315" xmlns="http://www.w3.org/2000/svg"><g fill="#6F797E" fill-rule="evenodd"><g transform="translate(0 90)"><circle cx="1" cy="64" r="1"/><circle cx="10" cy="64" r="1"/><circle cx="19" cy="64" r="1"/><circle cx="1" cy="55" r="1"/><circle cx="10" cy="55" r="1"/><circle cx="19" cy="55" r="1"/><circle cx="1" cy="46" r="1"/><circle cx="10" cy="46" r="1"/><circle cx="19" cy="46" r="1"/><circle cx="1" cy="37" r="1"/><circle cx="10" cy="37" r="1"/><circle cx="19" cy="37" r="1"/><circle cx="1" cy="28" r="1"/><circle cx="10" cy="28" r="1"/><circle cx="19" cy="28" r="1"/><circle cx="1" cy="19" r="1"/><circle cx="10" cy="19" r="1"/><circle cx="19" cy="19" r="1"/><circle cx="1" cy="10" r="1"/><circle cx="10" cy="10" r="1"/><circle cx="19" cy="10" r="1"/><circle cx="1" cy="1" r="1"/><circle cx="10" cy="1" r="1"/><circle cx="19" cy="1" r="1"/></g><g transform="translate(27)"><circle cx="1" cy="145" r="1"/><circle cx="10" cy="145" r="1"/><circle cx="19" cy="145" r="1"/><circle cx="28" cy="145" r="1"/><circle cx="1" cy="136" r="1"/><circle cx="10" cy="136" r="1"/><circle cx="19" cy="136" r="1"/><circle cx="28" cy="136" r="1"/><circle cx="1" cy="127" r="1"/><circle cx="10" cy="127" r="1"/><circle cx="19" cy="127" r="1"/><circle cx="28" cy="127" r="1"/><circle cx="1" cy="118" r="1"/><circle cx="10" cy="118" r="1"/><circle cx="19" cy="118" r="1"/><circle cx="28" cy="118" r="1"/><circle cx="1" cy="109" r="1"/><circle cx="10" cy="109" r="1"/><circle cx="19" cy="109" r="1"/><circle cx="28" cy="109" r="1"/><circle cx="1" cy="100" r="1"/><circle cx="10" cy="100" r="1"/><circle cx="19" cy="100" r="1"/><circle cx="28" cy="100" r="1"/><circle cx="1" cy="91" r="1"/><circle cx="10" cy="91" r="1"/><circle cx="19" cy="91" r="1"/><circle cx="28" cy="91" r="1"/><circle cx="1" cy="82" r="1"/><circle cx="10" cy="82" r="1"/><circle cx="19" cy="82" r="1"/><circle cx="28" cy="82" r="1"/><circle cx="1" cy="73" r="1"/><circle cx="10" cy="73" r="1"/><circle cx="19" cy="73" r="1"/><circle cx="28" cy="73" r="1"/><circle cx="1" cy="64" r="1"/><circle cx="10" cy="64" r="1"/><circle cx="19" cy="64" r="1"/><circle cx="28" cy="64" r="1"/><circle cx="1" cy="55" r="1"/><circle cx="10" cy="55" r="1"/><circle cx="19" cy="55" r="1"/><circle cx="28" cy="55" r="1"/><circle cx="1" cy="46" r="1"/><circle cx="10" cy="46" r="1"/><circle cx="19" cy="46" r="1"/><circle cx="28" cy="46" r="1"/><circle cx="1" cy="37" r="1"/><circle cx="10" cy="37" r="1"/><circle cx="19" cy="37" r="1"/><circle cx="28" cy="37" r="1"/><circle cx="1" cy="28" r="1"/><circle cx="10" cy="28" r="1"/><circle cx="19" cy="28" r="1"/><circle cx="28" cy="28" r="1"/><circle cx="1" cy="19" r="1"/><circle cx="10" cy="19" r="1"/><circle cx="19" cy="19" r="1"/><circle cx="28" cy="19" r="1"/><circle cx="1" cy="10" r="1"/><circle cx="10" cy="10" r="1"/><circle cx="19" cy="10" r="1"/><circle cx="28" cy="10" r="1"/><circle cx="1" cy="1" r="1"/><circle cx="10" cy="1" r="1"/><circle cx="19" cy="1" r="1"/><circle cx="28" cy="1" r="1"/></g><g transform="translate(86 72)"><circle cx="1" cy="145" r="1"/><circle cx="10" cy="145" r="1"/><circle cx="19" cy="145" r="1"/><circle cx="28" cy="145" r="1"/><circle cx="1" cy="136" r="1"/><circle cx="10" cy="136" r="1"/><circle cx="19" cy="136" r="1"/><circle cx="28" cy="136" r="1"/><circle cx="1" cy="127" r="1"/><circle cx="10" cy="127" r="1"/><circle cx="19" cy="127" r="1"/><circle cx="28" cy="127" r="1"/><circle cx="1" cy="118" r="1"/><circle cx="10" cy="118" r="1"/><circle cx="19" cy="118" r="1"/><circle cx="28" cy="118" r="1"/><circle cx="1" cy="109" r="1"/><circle cx="10" cy="109" r="1"/><circle cx="19" cy="109" r="1"/><circle cx="28" cy="109" r="1"/><circle cx="1" cy="100" r="1"/><circle cx="10" cy="100" r="1"/><circle cx="19" cy="100" r="1"/><circle cx="28" cy="100" r="1"/><circle cx="1" cy="91" r="1"/><circle cx="10" cy="91" r="1"/><circle cx="19" cy="91" r="1"/><circle cx="28" cy="91" r="1"/><circle cx="1" cy="82" r="1"/><circle cx="10" cy="82" r="1"/><circle cx="19" cy="82" r="1"/><circle cx="28" cy="82" r="1"/><circle cx="1" cy="73" r="1"/><circle cx="10" cy="73" r="1"/><circle cx="19" cy="73" r="1"/><circle cx="28" cy="73" r="1"/><circle cx="1" cy="64" r="1"/><circle cx="10" cy="64" r="1"/><circle cx="19" cy="64" r="1"/><circle cx="28" cy="64" r="1"/><circle cx="1" cy="55" r="1"/><circle cx="10" cy="55" r="1"/><circle cx="19" cy="55" r="1"/><circle cx="28" cy="55" r="1"/><circle cx="1" cy="46" r="1"/><circle cx="10" cy="46" r="1"/><circle cx="19" cy="46" r="1"/><circle cx="28" cy="46" r="1"/><circle cx="1" cy="37" r="1"/><circle cx="10" cy="37" r="1"/><circle cx="19" cy="37" r="1"/><circle cx="28" cy="37" r="1"/><circle cx="1" cy="28" r="1"/><circle cx="10" cy="28" r="1"/><circle cx="19" cy="28" r="1"/><circle cx="28" cy="28" r="1"/><circle cx="1" cy="19" r="1"/><circle cx="10" cy="19" r="1"/><circle cx="19" cy="19" r="1"/><circle cx="28" cy="19" r="1"/><circle cx="1" cy="10" r="1"/><circle cx="10" cy="10" r="1"/><circle cx="19" cy="10" r="1"/><circle cx="28" cy="10" r="1"/><circle cx="1" cy="1" r="1"/><circle cx="10" cy="1" r="1"/><circle cx="19" cy="1" r="1"/><circle cx="28" cy="1" r="1"/></g><g transform="translate(122 45)"><circle cx="1" cy="199" r="1"/><circle cx="10" cy="199" r="1"/><circle cx="19" cy="199" r="1"/><circle cx="28" cy="199" r="1"/><circle cx="1" cy="190" r="1"/><circle cx="10" cy="190" r="1"/><circle cx="19" cy="190" r="1"/><circle cx="28" cy="190" r="1"/><circle cx="1" cy="181" r="1"/><circle cx="10" cy="181" r="1"/><circle cx="19" cy="181" r="1"/><circle cx="28" cy="181" r="1"/><circle cx="1" cy="172" r="1"/><circle cx="10" cy="172" r="1"/><circle cx="19" cy="172" r="1"/><circle cx="28" cy="172" r="1"/><circle cx="1" cy="163" r="1"/><circle cx="10" cy="163" r="1"/><circle cx="19" cy="163" r="1"/><circle cx="28" cy="163" r="1"/><circle cx="1" cy="154" r="1"/><circle cx="10" cy="154" r="1"/><circle cx="19" cy="154" r="1"/><circle cx="28" cy="154" r="1"/><circle cx="1" cy="145" r="1"/><circle cx="10" cy="145" r="1"/><circle cx="19" cy="145" r="1"/><circle cx="28" cy="145" r="1"/><circle cx="1" cy="136" r="1"/><circle cx="10" cy="136" r="1"/><circle cx="19" cy="136" r="1"/><circle cx="28" cy="136" r="1"/><circle cx="1" cy="127" r="1"/><circle cx="10" cy="127" r="1"/><circle cx="19" cy="127" r="1"/><circle cx="28" cy="127" r="1"/><circle cx="1" cy="118" r="1"/><circle cx="10" cy="118" r="1"/><circle cx="19" cy="118" r="1"/><circle cx="28" cy="118" r="1"/><circle cx="1" cy="109" r="1"/><circle cx="10" cy="109" r="1"/><circle cx="19" cy="109" r="1"/><circle cx="28" cy="109" r="1"/><circle cx="1" cy="100" r="1"/><circle cx="10" cy="100" r="1"/><circle cx="19" cy="100" r="1"/><circle cx="28" cy="100" r="1"/><circle cx="1" cy="91" r="1"/><circle cx="10" cy="91" r="1"/><circle cx="19" cy="91" r="1"/><circle cx="28" cy="91" r="1"/><circle cx="1" cy="82" r="1"/><circle cx="10" cy="82" r="1"/><circle cx="19" cy="82" r="1"/><circle cx="28" cy="82" r="1"/><circle cx="1" cy="73" r="1"/><circle cx="10" cy="73" r="1"/><circle cx="19" cy="73" r="1"/><circle cx="28" cy="73" r="1"/><circle cx="1" cy="64" r="1"/><circle cx="10" cy="64" r="1"/><circle cx="19" cy="64" r="1"/><circle cx="28" cy="64" r="1"/><circle cx="1" cy="55" r="1"/><circle cx="10" cy="55" r="1"/><circle cx="19" cy="55" r="1"/><circle cx="28" cy="55" r="1"/><circle cx="1" cy="46" r="1"/><circle cx="10" cy="46" r="1"/><circle cx="19" cy="46" r="1"/><circle cx="28" cy="46" r="1"/><circle cx="1" cy="37" r="1"/><circle cx="10" cy="37" r="1"/><circle cx="19" cy="37" r="1"/><circle cx="28" cy="37" r="1"/><circle cx="1" cy="28" r="1"/><circle cx="10" cy="28" r="1"/><circle cx="19" cy="28" r="1"/><circle cx="28" cy="28" r="1"/><circle cx="1" cy="19" r="1"/><circle cx="10" cy="19" r="1"/><circle cx="19" cy="19" r="1"/><circle cx="28" cy="19" r="1"/><circle cx="1" cy="10" r="1"/><circle cx="10" cy="10" r="1"/><circle cx="19" cy="10" r="1"/><circle cx="28" cy="10" r="1"/><circle cx="1" cy="1" r="1"/><circle cx="10" cy="1" r="1"/><circle cx="19" cy="1" r="1"/><circle cx="28" cy="1" r="1"/></g><g transform="translate(86 286)"><circle cx="1" cy="28" r="1"/><circle cx="10" cy="28" r="1"/><circle cx="19" cy="28" r="1"/><circle cx="28" cy="28" r="1"/><circle cx="1" cy="19" r="1"/><circle cx="10" cy="19" r="1"/><circle cx="19" cy="19" r="1"/><circle cx="28" cy="19" r="1"/><circle cx="1" cy="10" r="1"/><circle cx="10" cy="10" r="1"/><circle cx="19" cy="10" r="1"/><circle cx="28" cy="10" r="1"/><circle cx="1" cy="1" r="1"/><circle cx="10" cy="1" r="1"/><circle cx="19" cy="1" r="1"/><circle cx="28" cy="1" r="1"/></g></g></svg>