<svg height="112" width="65" xmlns="http://www.w3.org/2000/svg"><g fill="#6f797e" fill-rule="evenodd"><circle cx="1" cy="111" r="1"/><circle cx="10" cy="111" r="1"/><circle cx="19" cy="111" r="1"/><circle cx="1" cy="102" r="1"/><circle cx="10" cy="102" r="1"/><circle cx="19" cy="102" r="1"/><circle cx="1" cy="93" r="1"/><circle cx="10" cy="93" r="1"/><circle cx="19" cy="93" r="1"/><circle cx="37" cy="73" r="1"/><circle cx="46" cy="73" r="1"/><circle cx="55" cy="73" r="1"/><circle cx="64" cy="73" r="1"/><circle cx="37" cy="64" r="1"/><circle cx="46" cy="64" r="1"/><circle cx="55" cy="64" r="1"/><circle cx="64" cy="64" r="1"/><circle cx="37" cy="55" r="1"/><circle cx="46" cy="55" r="1"/><circle cx="55" cy="55" r="1"/><circle cx="64" cy="55" r="1"/><circle cx="37" cy="46" r="1"/><circle cx="46" cy="46" r="1"/><circle cx="55" cy="46" r="1"/><circle cx="64" cy="46" r="1"/><circle cx="37" cy="37" r="1"/><circle cx="46" cy="37" r="1"/><circle cx="55" cy="37" r="1"/><circle cx="64" cy="37" r="1"/><circle cx="37" cy="28" r="1"/><circle cx="46" cy="28" r="1"/><circle cx="55" cy="28" r="1"/><circle cx="64" cy="28" r="1"/><circle cx="37" cy="19" r="1"/><circle cx="46" cy="19" r="1"/><circle cx="55" cy="19" r="1"/><circle cx="64" cy="19" r="1"/><circle cx="37" cy="10" r="1"/><circle cx="46" cy="10" r="1"/><circle cx="55" cy="10" r="1"/><circle cx="64" cy="10" r="1"/><circle cx="37" cy="1" r="1"/><circle cx="46" cy="1" r="1"/><circle cx="55" cy="1" r="1"/><circle cx="64" cy="1" r="1"/></g></svg>